<mxfile host="app.diagrams.net" modified="2022-11-16T02:00:50.401Z" agent="5.0 (Windows NT 10.0; Win64; x64) AppleWebKit/537.36 (KHTML, like Gecko) Chrome/107.0.0.0 Safari/537.36 Edg/107.0.1418.42" etag="XpgX1PTQJCP85ktnGncW" version="20.5.3" type="github">
  <diagram id="536xvFlpvNGluMWGjvSa" name="第 1 页">
    <mxGraphModel dx="1422" dy="825" grid="1" gridSize="10" guides="1" tooltips="1" connect="1" arrows="1" fold="1" page="1" pageScale="1" pageWidth="827" pageHeight="1169" math="0" shadow="0">
      <root>
        <mxCell id="0" />
        <mxCell id="1" parent="0" />
        <mxCell id="uUx9-jI9N2qksWY1LVU2-1" value="nvwa技术底座" style="rounded=1;whiteSpace=wrap;html=1;verticalAlign=top;dashed=1;" vertex="1" parent="1">
          <mxGeometry x="130" y="410" width="670" height="70" as="geometry" />
        </mxCell>
        <mxCell id="uUx9-jI9N2qksWY1LVU2-2" value="Nvwa Framework" style="rounded=1;whiteSpace=wrap;html=1;" vertex="1" parent="1">
          <mxGeometry x="144" y="440" width="270" height="30" as="geometry" />
        </mxCell>
        <mxCell id="uUx9-jI9N2qksWY1LVU2-3" value="Nvwa 流水线" style="rounded=1;whiteSpace=wrap;html=1;" vertex="1" parent="1">
          <mxGeometry x="430" y="440" width="180" height="30" as="geometry" />
        </mxCell>
        <mxCell id="uUx9-jI9N2qksWY1LVU2-4" value="" style="verticalLabelPosition=bottom;html=1;verticalAlign=top;align=center;strokeColor=none;fillColor=#00BEF2;shape=mxgraph.azure.git_repository;" vertex="1" parent="1">
          <mxGeometry x="620" y="440" width="30" height="30" as="geometry" />
        </mxCell>
        <mxCell id="uUx9-jI9N2qksWY1LVU2-5" value="代码仓库" style="text;html=1;strokeColor=none;fillColor=none;align=center;verticalAlign=middle;whiteSpace=wrap;rounded=0;" vertex="1" parent="1">
          <mxGeometry x="640" y="450" width="60" height="30" as="geometry" />
        </mxCell>
        <mxCell id="uUx9-jI9N2qksWY1LVU2-6" value="元数据体系" style="rounded=1;whiteSpace=wrap;html=1;verticalAlign=top;" vertex="1" parent="1">
          <mxGeometry x="130" y="310" width="650" height="50" as="geometry" />
        </mxCell>
      </root>
    </mxGraphModel>
  </diagram>
</mxfile>
